<svg xmlns="http://www.w3.org/2000/svg" xmlns:xlink="http://www.w3.org/1999/xlink" width="500" zoomAndPan="magnify" viewBox="0 0 375 374.999991" height="500" preserveAspectRatio="xMidYMid meet" version="1.0"><defs><g/><clipPath id="ec6ff1c8f9"><path d="M 9 138.492188 L 92 138.492188 L 92 192 L 9 192 Z M 9 138.492188 " clip-rule="nonzero"/></clipPath><clipPath id="d95e4bc2b7"><path d="M 11 180 L 107 180 L 107 236.742188 L 11 236.742188 Z M 11 180 " clip-rule="nonzero"/></clipPath></defs><rect x="-37.5" width="450" fill="#ffffff" y="-37.499999" height="449.999989" fill-opacity="1"/><rect x="-37.5" width="450" fill="#ffffff" y="-37.499999" height="449.999989" fill-opacity="1"/><rect x="-37.5" width="450" fill="#ffffff" y="-37.499999" height="449.999989" fill-opacity="1"/><g fill="#ea650c" fill-opacity="1"><g transform="translate(135.601886, 213.374986)"><g><path d="M 6.171875 -51.5 L 45.1875 -51.5 C 46.6875 -51.5 47.785156 -51.320312 48.484375 -50.96875 C 49.191406 -50.625 49.660156 -50.078125 49.890625 -49.328125 C 50.128906 -48.578125 50.25 -47.59375 50.25 -46.375 C 50.25 -45.164062 50.128906 -44.195312 49.890625 -43.46875 C 49.660156 -42.75 49.265625 -42.25 48.703125 -41.96875 C 47.859375 -41.539062 46.664062 -41.328125 45.125 -41.328125 L 31.71875 -41.328125 L 31.71875 -6.03125 C 31.71875 -4.957031 31.679688 -4.160156 31.609375 -3.640625 C 31.535156 -3.128906 31.320312 -2.535156 30.96875 -1.859375 C 30.625 -1.179688 30.003906 -0.703125 29.109375 -0.421875 C 28.222656 -0.140625 27.054688 0 25.609375 0 C 24.160156 0 23.003906 -0.140625 22.140625 -0.421875 C 21.273438 -0.703125 20.664062 -1.179688 20.3125 -1.859375 C 19.957031 -2.535156 19.742188 -3.140625 19.671875 -3.671875 C 19.609375 -4.210938 19.578125 -5.023438 19.578125 -6.109375 L 19.578125 -41.328125 L 6.109375 -41.328125 C 4.609375 -41.328125 3.503906 -41.503906 2.796875 -41.859375 C 2.097656 -42.210938 1.628906 -42.757812 1.390625 -43.5 C 1.160156 -44.25 1.046875 -45.234375 1.046875 -46.453125 C 1.046875 -47.671875 1.160156 -48.640625 1.390625 -49.359375 C 1.628906 -50.085938 2.03125 -50.59375 2.59375 -50.875 C 3.4375 -51.289062 4.628906 -51.5 6.171875 -51.5 Z M 6.171875 -51.5 "/></g></g></g><g fill="#ea650c" fill-opacity="1"><g transform="translate(186.888958, 213.374986)"><g><path d="M 27.921875 -36.5625 C 28.816406 -36.28125 29.554688 -35.800781 30.140625 -35.125 C 30.722656 -34.445312 31.015625 -33.359375 31.015625 -31.859375 C 31.015625 -30.359375 30.566406 -28.71875 29.671875 -26.9375 C 28.785156 -25.164062 27.503906 -24.28125 25.828125 -24.28125 C 24.984375 -24.28125 24.175781 -24.46875 23.40625 -24.84375 C 22.632812 -25.21875 21.613281 -25.40625 20.34375 -25.40625 C 19.082031 -25.40625 17.898438 -24.957031 16.796875 -24.0625 C 15.703125 -23.175781 15.15625 -22.101562 15.15625 -20.84375 L 15.15625 -6.109375 C 15.15625 -5.023438 15.117188 -4.210938 15.046875 -3.671875 C 14.984375 -3.140625 14.765625 -2.523438 14.390625 -1.828125 C 13.679688 -0.609375 11.851562 0 8.90625 0 C 6.664062 0 5.050781 -0.394531 4.0625 -1.1875 C 3.320312 -1.84375 2.90625 -2.847656 2.8125 -4.203125 C 2.8125 -4.671875 2.8125 -5.351562 2.8125 -6.25 L 2.8125 -30.875 C 2.8125 -31.945312 2.84375 -32.753906 2.90625 -33.296875 C 2.976562 -33.835938 3.179688 -34.429688 3.515625 -35.078125 C 4.160156 -36.347656 5.984375 -36.984375 8.984375 -36.984375 C 11.785156 -36.984375 13.539062 -36.441406 14.25 -35.359375 C 14.757812 -34.617188 15.015625 -33.847656 15.015625 -33.046875 C 15.253906 -33.378906 15.59375 -33.78125 16.03125 -34.25 C 16.476562 -34.71875 17.425781 -35.347656 18.875 -36.140625 C 20.320312 -36.929688 21.59375 -37.328125 22.6875 -37.328125 C 23.789062 -37.328125 24.71875 -37.269531 25.46875 -37.15625 C 26.21875 -37.039062 27.035156 -36.84375 27.921875 -36.5625 Z M 27.921875 -36.5625 "/></g></g></g><g fill="#ea650c" fill-opacity="1"><g transform="translate(218.952143, 213.374986)"><g><path d="M 26.8125 -33.046875 C 27.09375 -35.671875 28.9375 -36.984375 32.34375 -36.984375 C 34.164062 -36.984375 35.519531 -36.84375 36.40625 -36.5625 C 37.300781 -36.28125 37.925781 -35.785156 38.28125 -35.078125 C 38.632812 -34.378906 38.84375 -33.757812 38.90625 -33.21875 C 38.976562 -32.6875 39.015625 -31.882812 39.015625 -30.8125 L 39.015625 -6.25 C 39.015625 -5.164062 38.976562 -4.351562 38.90625 -3.8125 C 38.84375 -3.28125 38.644531 -2.664062 38.3125 -1.96875 C 37.65625 -0.75 36.050781 -0.140625 33.5 -0.140625 C 30.957031 -0.140625 29.253906 -0.453125 28.390625 -1.078125 C 27.523438 -1.710938 27.019531 -2.640625 26.875 -3.859375 C 25.144531 -1.378906 22.253906 -0.140625 18.203125 -0.140625 C 14.160156 -0.140625 10.40625 -1.988281 6.9375 -5.6875 C 3.476562 -9.382812 1.75 -13.675781 1.75 -18.5625 C 1.75 -23.445312 3.488281 -27.722656 6.96875 -31.390625 C 10.457031 -35.066406 14.285156 -36.90625 18.453125 -36.90625 C 20.046875 -36.90625 21.492188 -36.625 22.796875 -36.0625 C 24.109375 -35.5 25.019531 -34.972656 25.53125 -34.484375 C 26.050781 -33.992188 26.476562 -33.515625 26.8125 -33.046875 Z M 14.03125 -18.453125 C 14.03125 -16.910156 14.640625 -15.519531 15.859375 -14.28125 C 17.078125 -13.039062 18.550781 -12.421875 20.28125 -12.421875 C 22.007812 -12.421875 23.445312 -13.050781 24.59375 -14.3125 C 25.738281 -15.570312 26.3125 -16.960938 26.3125 -18.484375 C 26.3125 -20.003906 25.757812 -21.421875 24.65625 -22.734375 C 23.5625 -24.046875 22.085938 -24.703125 20.234375 -24.703125 C 18.390625 -24.703125 16.894531 -24.046875 15.75 -22.734375 C 14.601562 -21.421875 14.03125 -19.992188 14.03125 -18.453125 Z M 14.03125 -18.453125 "/></g></g></g><g fill="#ea650c" fill-opacity="1"><g transform="translate(260.767593, 213.374986)"><g><path d="M 40.0625 -36.140625 C 42.5 -34.691406 43.71875 -33.144531 43.71875 -31.5 C 43.71875 -30.570312 43.25 -29.285156 42.3125 -27.640625 L 27.78125 -2.734375 C 27.320312 -1.941406 26.578125 -1.226562 25.546875 -0.59375 C 24.515625 0.03125 23.492188 0.34375 22.484375 0.34375 C 21.484375 0.34375 20.523438 0.0976562 19.609375 -0.390625 C 18.703125 -0.878906 18.0625 -1.378906 17.6875 -1.890625 L 17.046875 -2.671875 L 2.453125 -27.640625 C 1.515625 -29.191406 1.046875 -30.457031 1.046875 -31.4375 C 1.046875 -33.125 2.265625 -34.691406 4.703125 -36.140625 C 6.484375 -37.171875 7.882812 -37.6875 8.90625 -37.6875 C 9.9375 -37.6875 10.742188 -37.367188 11.328125 -36.734375 C 11.910156 -36.097656 12.53125 -35.148438 13.1875 -33.890625 L 22.390625 -16.203125 L 31.578125 -33.890625 C 32.085938 -34.773438 32.472656 -35.414062 32.734375 -35.8125 C 32.992188 -36.21875 33.40625 -36.617188 33.96875 -37.015625 C 34.53125 -37.410156 35.273438 -37.609375 36.203125 -37.609375 C 37.140625 -37.609375 38.425781 -37.117188 40.0625 -36.140625 Z M 40.0625 -36.140625 "/></g></g></g><g fill="#ea650c" fill-opacity="1"><g transform="translate(305.52977, 213.374986)"><g><path d="M 38.453125 -22.90625 C 38.453125 -20.03125 37.738281 -17.898438 36.3125 -16.515625 C 34.882812 -15.140625 33.304688 -14.453125 31.578125 -14.453125 L 14.953125 -14.453125 C 14.953125 -13.140625 15.722656 -12.039062 17.265625 -11.15625 C 18.804688 -10.269531 20.347656 -9.828125 21.890625 -9.828125 C 24.609375 -9.828125 26.738281 -10.109375 28.28125 -10.671875 L 29.046875 -10.953125 C 30.171875 -11.460938 31.109375 -11.71875 31.859375 -11.71875 C 33.359375 -11.71875 34.644531 -10.664062 35.71875 -8.5625 C 36.320312 -7.300781 36.625 -6.222656 36.625 -5.328125 C 36.625 -1.171875 31.644531 0.90625 21.6875 0.90625 C 18.21875 0.90625 15.140625 0.3125 12.453125 -0.875 C 9.765625 -2.070312 7.671875 -3.648438 6.171875 -5.609375 C 3.222656 -9.398438 1.75 -13.632812 1.75 -18.3125 C 1.75 -24.207031 3.65625 -28.921875 7.46875 -32.453125 C 11.28125 -35.984375 16.039062 -37.75 21.75 -37.75 C 28.25 -37.75 33.019531 -35.457031 36.0625 -30.875 C 37.65625 -28.445312 38.453125 -25.789062 38.453125 -22.90625 Z M 23.640625 -20.84375 C 25.421875 -20.84375 26.3125 -21.59375 26.3125 -23.09375 C 26.3125 -24.164062 25.898438 -25.03125 25.078125 -25.6875 C 24.265625 -26.34375 23.097656 -26.671875 21.578125 -26.671875 C 20.054688 -26.671875 18.546875 -26.050781 17.046875 -24.8125 C 15.554688 -23.570312 14.8125 -22.25 14.8125 -20.84375 Z M 23.640625 -20.84375 "/></g></g></g><g fill="#ea650c" fill-opacity="1"><g transform="translate(345.731535, 213.374986)"><g><path d="M 2.8125 -48.203125 C 2.8125 -49.285156 2.84375 -50.09375 2.90625 -50.625 C 2.976562 -51.164062 3.179688 -51.785156 3.515625 -52.484375 C 4.160156 -53.753906 5.984375 -54.390625 8.984375 -54.390625 C 11.835938 -54.390625 13.613281 -53.753906 14.3125 -52.484375 C 14.6875 -51.785156 14.910156 -51.15625 14.984375 -50.59375 C 15.054688 -50.03125 15.09375 -49.210938 15.09375 -48.140625 L 15.09375 -15.640625 C 15.09375 -13.960938 15.226562 -12.898438 15.5 -12.453125 C 15.78125 -12.003906 16.398438 -11.78125 17.359375 -11.78125 C 18.328125 -11.78125 18.972656 -11.742188 19.296875 -11.671875 C 19.617188 -11.609375 20.015625 -11.414062 20.484375 -11.09375 C 21.421875 -10.476562 21.890625 -8.816406 21.890625 -6.109375 C 21.890625 -3.160156 21.421875 -1.359375 20.484375 -0.703125 C 19.273438 0.140625 16.375 0.28125 11.78125 -0.28125 C 8.1875 -0.75 5.847656 -1.941406 4.765625 -3.859375 C 3.460938 -6.148438 2.8125 -9.800781 2.8125 -14.8125 Z M 2.8125 -48.203125 "/></g></g></g><g clip-path="url(#ec6ff1c8f9)"><path fill="#ea650c" d="M 16.992188 190.699219 C 16.917969 189.683594 16.878906 188.65625 16.878906 187.617188 C 16.878906 183.425781 17.5 179.382812 18.652344 175.570312 C 20.230469 180.035156 25.777344 183.28125 29.632812 185.542969 C 30.761719 186.210938 31.921875 186.828125 33.003906 187.554688 C 35.074219 187.007812 37.117188 186.410156 39.136719 185.765625 C 38.742188 184.675781 38.558594 183.25 38.78125 182.5 C 39.347656 180.632812 41.082031 181.121094 42.707031 180.980469 C 48.027344 180.515625 46.386719 171.914062 48.757812 168.71875 C 50.492188 166.378906 53.988281 164.957031 54.003906 162.042969 C 54.011719 159.628906 51.4375 157.8125 51.394531 155.394531 C 51.386719 155.152344 51.410156 154.910156 51.449219 154.671875 C 51.589844 153.746094 51.953125 152.832031 51.890625 151.902344 C 51.753906 150.03125 50.019531 148.710938 48.59375 147.335938 C 51.640625 146.617188 54.816406 146.230469 58.082031 146.230469 C 62.320312 146.230469 66.414062 146.875 70.261719 148.070312 C 69.179688 151.0625 71.554688 156.175781 74.195312 157.855469 C 76.179688 159.121094 78.964844 159.613281 79.851562 161.796875 C 80.007812 162.183594 80.078125 162.574219 80.09375 162.957031 C 83.710938 159.804688 87.117188 156.417969 90.289062 152.796875 C 90.75 152.273438 91.074219 151.902344 91.363281 151.640625 C 82.636719 143.488281 70.941406 138.5 58.082031 138.5 C 31.078125 138.5 9.183594 160.492188 9.183594 187.625 C 9.183594 188.933594 9.230469 190.226562 9.332031 191.503906 C 11.914062 191.304688 14.464844 191.035156 16.992188 190.699219 Z M 16.992188 190.699219 " fill-opacity="1" fill-rule="nonzero"/></g><g clip-path="url(#d95e4bc2b7)"><path fill="#ea650c" d="M 100.753906 184.371094 C 100.402344 184.574219 100.148438 184.722656 100.03125 184.792969 C 92.007812 189.722656 83.402344 193.800781 74.410156 196.960938 C 74.363281 197.367188 74.359375 197.769531 74.433594 198.171875 C 74.839844 200.457031 77.070312 202.40625 79.375 202.476562 C 80.4375 202.511719 81.640625 202.261719 82.460938 202.941406 C 82.957031 203.351562 83.171875 204.007812 83.34375 204.632812 C 84.460938 208.714844 84.765625 213.015625 84.234375 217.214844 C 84.128906 218.058594 83.996094 218.921875 84.042969 219.765625 C 76.960938 225.550781 67.925781 229.015625 58.085938 229.015625 C 56.117188 229.015625 54.179688 228.875 52.285156 228.605469 C 52.304688 228.257812 52.335938 227.914062 52.386719 227.574219 C 52.652344 225.847656 53.550781 224.230469 54.878906 223.101562 C 55.761719 222.359375 56.925781 221.632812 56.953125 220.476562 C 56.984375 219.234375 55.703125 218.453125 54.839844 217.5625 C 53.15625 215.824219 52.957031 213.0625 54.414062 211.21875 C 56.3125 208.824219 58.117188 206.316406 59.90625 203.8125 C 60.511719 202.960938 61.152344 201.992188 61.007812 200.957031 C 61.007812 200.945312 61.003906 200.941406 61.003906 200.929688 C 53.300781 202.792969 45.402344 204.015625 37.40625 204.558594 C 35.496094 204.691406 33.601562 204.777344 31.71875 204.832031 C 31.539062 206.578125 31.679688 208.367188 32.179688 209.945312 C 33.257812 213.34375 36.183594 215.957031 39.515625 217.183594 C 40.390625 217.507812 41.324219 217.753906 42.058594 218.328125 C 42.800781 218.902344 43.300781 219.921875 42.945312 220.789062 C 42.734375 221.304688 42.246094 221.730469 42.238281 222.289062 C 42.234375 222.675781 42.46875 223.019531 42.691406 223.328125 C 43.101562 223.902344 43.878906 225.277344 44.800781 226.816406 C 33.996094 223.125 25.214844 215.039062 20.546875 204.691406 C 19.257812 204.621094 17.976562 204.535156 16.707031 204.425781 L 16.523438 204.410156 C 15.230469 204.300781 13.640625 204.15625 11.941406 203.917969 C 18.632812 223.039062 36.761719 236.75 58.085938 236.75 C 85.09375 236.75 106.988281 214.753906 106.988281 187.625 C 106.988281 185.308594 106.820312 183.027344 106.515625 180.796875 C 105.398438 181.644531 103.589844 182.726562 100.753906 184.371094 Z M 100.753906 184.371094 " fill-opacity="1" fill-rule="nonzero"/></g><path fill="#ea650c" d="M 75.28125 169.175781 C 74.761719 168.964844 55.222656 188.152344 16.296875 192.773438 C 14.003906 193.042969 7.011719 193.816406 5.117188 193.46875 C 2.96875 193.074219 1.175781 191.761719 3.300781 187.9375 C 1.855469 189.675781 0.113281 191.089844 0.09375 193.613281 C 0.0234375 201.121094 11.515625 202.035156 16.871094 202.496094 C 23.652344 203.085938 33.230469 202.441406 39.933594 201.277344 C 56.273438 198.441406 64.710938 193.269531 84.320312 183.390625 C 84.320312 183.390625 84.324219 177.628906 84.320312 173.273438 C 84.308594 173.261719 80.613281 171.355469 75.28125 169.175781 Z M 75.28125 169.175781 " fill-opacity="1" fill-rule="nonzero"/><path fill="#ea650c" d="M 127.597656 146.511719 C 126.230469 144.320312 120.550781 145.410156 118.371094 146.785156 L 116.011719 148.273438 L 92.613281 142.609375 C 91.941406 142.414062 91.164062 142.539062 90.511719 142.949219 C 89.144531 143.808594 88.84375 145.554688 89.90625 146.472656 L 102.160156 156.191406 L 89.464844 167.292969 L 83.472656 164.761719 C 82.765625 164.464844 81.964844 164.53125 81.320312 164.9375 L 79.210938 166.265625 C 78.714844 166.578125 78.738281 167.308594 79.253906 167.585938 L 87.070312 171.882812 L 87.4375 180.691406 C 87.460938 181.277344 88.109375 181.617188 88.597656 181.308594 L 90.707031 179.976562 C 91.355469 179.570312 91.765625 178.871094 91.804688 178.105469 L 92.117188 172.101562 L 107 165.050781 L 110.855469 182.886719 C 111.210938 184.246094 112.902344 184.734375 114.273438 183.875 C 114.921875 183.464844 115.375 182.816406 115.488281 182.121094 L 120.980469 156.234375 L 123.339844 154.746094 C 125.519531 153.371094 128.964844 148.699219 127.597656 146.511719 Z M 123.023438 153 C 123.484375 149.144531 119.683594 147.617188 119.683594 147.617188 C 119.683594 147.617188 123.566406 145.792969 124.96875 148.046875 C 126.445312 150.421875 123.023438 153 123.023438 153 Z M 123.023438 153 " fill-opacity="1" fill-rule="nonzero"/></svg>